<svg xmlns="http://www.w3.org/2000/svg" viewBox="0 0 280 140"><rect y="46" width="280" height="50" rx="25" style="fill:#4a40d4;opacity:0.5"/><circle cx="140" cy="70" r="70" style="fill:#4a40d4"/><circle cx="25" cy="71" r="10" style="fill:#4a40d4"/><circle cx="255" cy="71" r="10" style="fill:#4a40d4"/><path d="M132.32,113.58a20.71,20.71,0,0,1-22.24-8.24,19.19,19.19,0,0,1-3.28-14.5,17.14,17.14,0,0,1,.63-2.44l.49-1.5,1.33,1A33.49,33.49,0,0,0,119.46,93l1,.3-.09,1a5.83,5.83,0,0,0,1,3.88,6.25,6.25,0,0,0,6.69,2.49,5.65,5.65,0,0,0,1.61-.71l26.08-16.62a5.42,5.42,0,0,0,2.45-3.63,5.76,5.76,0,0,0-1-4.37,6.25,6.25,0,0,0-6.69-2.49,5.47,5.47,0,0,0-1.6.71l-10,6.34a19,19,0,0,1-5.29,2.33,20.73,20.73,0,0,1-22.24-8.25,19.17,19.17,0,0,1-3.28-14.5,18,18,0,0,1,8.13-12.05l26.08-16.62a18.86,18.86,0,0,1,5.3-2.33,20.71,20.71,0,0,1,22.24,8.24,19.19,19.19,0,0,1,3.28,14.5,18.59,18.59,0,0,1-.63,2.44l-.49,1.5-1.33-1A33.49,33.49,0,0,0,160.54,49l-1-.3.09-1a5.83,5.83,0,0,0-1-3.88,6.25,6.25,0,0,0-6.69-2.49,5.65,5.65,0,0,0-1.61.71L124.23,58.72a5.42,5.42,0,0,0-2.45,3.63,5.77,5.77,0,0,0,1,4.37,6.25,6.25,0,0,0,6.69,2.49,5.65,5.65,0,0,0,1.61-.71l10-6.34a19,19,0,0,1,5.29-2.33,20.73,20.73,0,0,1,22.24,8.25,19.17,19.17,0,0,1,3.28,14.5,18,18,0,0,1-8.13,12l-26.08,16.62a18.86,18.86,0,0,1-5.3,2.33" style="fill:#fff"/></svg>