<?xml version="1.0" encoding="utf-8"?>
<!-- Generator: Adobe Illustrator 27.8.0, SVG Export Plug-In . SVG Version: 6.00 Build 0)  -->
<svg version="1.1" id="Layer_1" xmlns="http://www.w3.org/2000/svg" xmlns:xlink="http://www.w3.org/1999/xlink" x="0px" y="0px"
	 viewBox="0 0 500 500" style="enable-background:new 0 0 500 500;" xml:space="preserve">
<style type="text/css">
	.st0{fill:#CCCCCC;}
	.st1{opacity:0.8;fill:#FFFFFF;enable-background:new    ;}
	.st2{fill:#4A40D4;}
	.st3{opacity:0.2;fill:#4A40D4;enable-background:new    ;}
	.st4{opacity:0.5;fill:none;stroke:#000000;stroke-miterlimit:10;enable-background:new    ;}
</style>
<g id="Layer_1_00000163045533898166267070000005727236854930398640_">
	<path id="s" class="st0" d="M391.9,106.6c-36-51.9-107.8-67.1-159.4-34.4l-91,58.2c-24.8,15.6-42,41-47,69.8
		c-4.3,24.1-0.7,48.9,10.9,70.5c-7.9,11.9-13.2,25.1-15.6,39c-5.3,29.4,1.7,59.9,18.8,84c36.4,51.9,107.8,67.1,159.4,34.4l91-57.9
		c24.8-15.5,42-41,47-69.8c4.3-24.1,0.7-48.9-10.9-70.4c7.9-11.9,13.2-25.1,15.5-39C416.3,161.2,409.4,130.8,391.9,106.6"/>
	<path class="st1" d="M223.5,398.7c-29.4,7.6-60.2-4-77.4-28.8c-10.6-14.5-14.6-32.7-11.6-50.6c0.7-3,1.3-5.6,2-8.6l1.6-5.3l4.6,3.3
		c10.9,7.9,22.8,13.9,35.7,17.9l3.3,1l-0.3,3.3c-0.3,4.6,1,9.6,3.6,13.6c5.3,7.6,14.6,11.2,23.5,8.9c2-0.7,4-1.3,5.6-2.3l90.6-57.9
		c4.6-3,7.6-7.3,8.6-12.6c1-5.3-0.3-10.9-3.3-15.2c-5.3-7.6-14.5-10.9-23.5-8.6c-2,0.7-4,1.3-5.6,2.3l-34.7,22.2
		c-5.6,3.6-11.9,6.3-18.5,7.9c-29.4,7.6-60.2-4-77.4-28.8c-10.2-14.6-14.6-32.7-11.2-50.6c3-17.2,13.6-32.7,28.4-42l91-57.9
		c5.6-3.6,11.9-6.3,18.5-8.3c29.4-7.6,60.2,4,77.4,28.8c10.6,14.6,14.5,32.7,11.6,50.6c-0.7,3-1.3,5.6-2.3,8.6l-1.6,5.3l-4.6-3.3
		c-10.9-7.9-22.8-13.9-35.7-17.9l-3.3-1l0.3-3.3c0.3-4.6-1-9.6-3.6-13.6c-5.3-7.6-14.5-10.9-23.5-8.6c-2,0.7-4,1.3-5.6,2.3
		l-90.6,57.9c-4.6,3-7.6,7.3-8.6,12.6s0.3,10.9,3.3,15.2c5.3,7.6,14.6,10.9,23.5,8.6c2-0.7,4-1.3,5.6-2.3l34.7-22.2
		c5.6-3.6,11.9-6.3,18.5-8.3c29.4-7.6,60.2,4,77.4,28.8c10.6,14.6,14.5,32.7,11.6,50.6c-3,17.2-13.6,32.7-28.4,42l-91,57.9
		C236.4,394.1,230.1,396.7,223.5,398.7"/>
	<path id="range" class="st2" d="M349.9,239.9c-17.2-24.8-48-36.4-77.4-28.8c-6.6,2-12.9,4.6-18.5,8.3l-34.7,22.2
		c-1.6,1-3.6,1.6-5.6,2.3c-8.9,2.3-18.2-1-23.5-8.6c-3-4.3-4.3-9.9-3.3-15.2c1-5.3,4-9.6,8.6-12.6L336,117.6
		c1.2-0.7-18.8-25.9-27-39.9c-0.1,0.1-141.4,90.1-141.4,90.1c-14.9,9.3-25.5,24.8-28.4,42c-3.3,17.9,1,36.1,11.2,50.6
		c17.2,24.8,48,36.4,77.4,28.8c6.6-1.6,12.9-4.3,18.5-7.9l34.7-22.2c1.6-1,3.6-1.6,5.6-2.3c8.9-2.3,18.2,1,23.5,8.6
		c3,4.3,4.3,9.9,3.3,15.2c-1,5.3-4,9.6-8.6,12.6l-140.1,89.7c13.2,10.2,25.6,21.7,37.4,33.3L333,332.5c14.9-9.3,25.5-24.8,28.4-42
		C364.4,272.7,360.5,254.5,349.9,239.9z"/>
	<circle id="handle1" class="st2" cx="336" cy="88" r="43"/>
	<circle id="handle1focus" class="st3" cx="336.4" cy="88.2" r="63.7"/>
	<circle id="handle2" class="st2" cx="165" cy="411" r="43"/>
	<circle id="handle2focus" class="st3" cx="165.3" cy="410.6" r="63.7"/>
</g>
<g id="Layer_2_00000164490194546159642320000004417803286178466203_">
	<line class="st4" x1="261.2" y1="169" x2="266.2" y2="176.9"/>
	<line class="st4" x1="250.2" y1="176" x2="255.2" y2="183.9"/>
	<line class="st4" x1="239.2" y1="183" x2="244.2" y2="190.9"/>
	<line class="st4" x1="228.2" y1="190" x2="233.2" y2="197.9"/>
	<line class="st4" x1="217.2" y1="197" x2="222.2" y2="204.9"/>
	<line class="st4" x1="206.2" y1="204" x2="211.2" y2="211.9"/>
	<line class="st4" x1="195.2" y1="211" x2="200.2" y2="218.9"/>
	<line class="st4" x1="316.2" y1="134" x2="321.2" y2="141.9"/>
	<line class="st4" x1="305.2" y1="141" x2="310.2" y2="148.9"/>
	<line class="st4" x1="294.2" y1="148" x2="299.2" y2="155.9"/>
	<line class="st4" x1="283.2" y1="155" x2="288.2" y2="162.9"/>
	<line class="st4" x1="272.2" y1="162" x2="277.2" y2="169.9"/>
	<line class="st4" x1="280.2" y1="370" x2="285.2" y2="377.9"/>
	<line class="st4" x1="269.2" y1="377" x2="274.2" y2="384.9"/>
	<line class="st4" x1="258.2" y1="384" x2="263.2" y2="391.9"/>
	<line class="st4" x1="247.2" y1="391" x2="252.2" y2="398.9"/>
	<line class="st4" x1="236.2" y1="398" x2="241.2" y2="405.9"/>
	<line class="st4" x1="225.2" y1="405" x2="230.2" y2="412.9"/>
	<line class="st4" x1="214.2" y1="412" x2="219.2" y2="419.9"/>
	<line class="st4" x1="346.2" y1="328" x2="351.2" y2="335.9"/>
	<line class="st4" x1="335.2" y1="335" x2="340.2" y2="342.9"/>
	<line class="st4" x1="324.2" y1="342" x2="329.2" y2="349.9"/>
	<line class="st4" x1="313.2" y1="349" x2="318.2" y2="356.9"/>
	<line class="st4" x1="302.2" y1="356" x2="307.2" y2="363.9"/>
	<line class="st4" x1="291.2" y1="363" x2="296.2" y2="370.9"/>
</g>
</svg>
